<svg width="41" height="40" viewBox="0 0 41 40" fill="none" xmlns="http://www.w3.org/2000/svg">
<path d="M29.8566 24.8911C31.5087 27.216 31.2926 30.461 29.2083 32.5453L23.2978 38.4558L22.603 37.761C20.496 35.654 19.621 32.7816 19.978 30.0388" stroke="#FD7E14" stroke-width="2" stroke-miterlimit="10" stroke-linecap="round" stroke-linejoin="round"/>
<path d="M15.3599 10.3611C13.0276 8.61185 9.70375 8.79794 7.58234 10.9193L1.67188 16.8298L2.36672 17.5247C4.47648 19.6344 7.35383 20.509 10.0998 20.1482" stroke="#FD7E14" stroke-width="2" stroke-miterlimit="10" stroke-linecap="round" stroke-linejoin="round"/>
<path d="M37.686 12.6307C35.2118 19.7342 30.0663 25.7738 23.1028 29.2925L21.9919 29.8538L15.6643 30.8224L9.30518 24.4633L10.2738 18.1357L10.4588 17.7696C14.1231 10.5179 20.5096 5.25576 27.9631 2.90779C31.5452 1.77943 35.3735 1.32342 39.265 1.64427L39.3008 1.64724C39.4641 5.44881 38.8928 9.16623 37.686 12.6307Z" stroke="#FD7E14" stroke-width="2" stroke-miterlimit="10" stroke-linecap="round" stroke-linejoin="round"/>
<path d="M28.0752 3.01953L37.5743 12.5185" stroke="#FD7E14" stroke-width="2" stroke-miterlimit="10" stroke-linecap="round" stroke-linejoin="round"/>
<path d="M24.5952 19.4981C26.528 19.4981 28.0948 17.9313 28.0948 15.9986C28.0948 14.0658 26.528 12.499 24.5952 12.499C22.6625 12.499 21.0957 14.0658 21.0957 15.9986C21.0957 17.9313 22.6625 19.4981 24.5952 19.4981Z" stroke="#FD7E14" stroke-width="2" stroke-miterlimit="10" stroke-linecap="round" stroke-linejoin="round"/>
<path d="M21.8238 29.6862L10.4414 18.3037" stroke="#FD7E14" stroke-width="2" stroke-miterlimit="10" stroke-linecap="round" stroke-linejoin="round"/>
<path d="M9.28982 31.1611L5.51904 34.932" stroke="#FD7E14" stroke-width="2" stroke-miterlimit="10" stroke-linecap="round" stroke-linejoin="round"/>
<path d="M5.93346 27.8047L2.1626 31.5755" stroke="#FD7E14" stroke-width="2" stroke-miterlimit="10" stroke-linecap="round" stroke-linejoin="round"/>
<path d="M12.6468 34.5181L8.87598 38.2888" stroke="#FD7E14" stroke-width="2" stroke-miterlimit="10" stroke-linecap="round" stroke-linejoin="round"/>
</svg>
